<?xml version="1.0" encoding="utf-8"?>
<!-- Generator: Adobe Illustrator 16.0.0, SVG Export Plug-In . SVG Version: 6.00 Build 0)  -->
<!DOCTYPE svg PUBLIC "-//W3C//DTD SVG 1.1//EN" "http://www.w3.org/Graphics/SVG/1.1/DTD/svg11.dtd">
<svg version="1.1" id="Layer_1" xmlns="http://www.w3.org/2000/svg" xmlns:xlink="http://www.w3.org/1999/xlink" x="0px" y="0px"
	 width="120px" height="90px" viewBox="0 0 120 90" enable-background="new 0 0 120 90" xml:space="preserve">
<path fill="#CC6699" d="M101.694,51.611c-3.727,0-7.088,0.926-9.986,2.375c-2.854-5.063-2.609-8.395-2.609-8.395
	c0-0.992-0.051-1.371,0.479-3.304c0.526-1.934,0.945-2.092,0.994-3.376c0.05-1.284-3.059-1.21-3.059-1.21
	c-4.794-0.368-4.635,2.667-4.635,2.667s-0.39,2.79-2.782,7.065c-1.229,2.196-3.032,5.313-4.979,8.44
	c-1.013-1.777-1.965-5.275-1.936-6.807c0.033-1.729,1.18-5.775,1.344-6.068c0.163-0.294,1.082-1.958-3.147-1.795
	c-4.227,0.164-4.063,1.306-4.162,1.762c-0.098,0.457-0.359,1.337-1.047,3.426c-0.689,2.087-9.209,20.457-10.094,22.218
	s-1.016,1.435-1.116-0.359c-0.098-1.793,3.014-12.789,3.014-12.789c0.985-2.97-2.128-3.134-2.128-3.134
	c-0.583,0.132-1.156,0.426-1.705,0.929c0.012-0.047,0.022-0.098,0.033-0.145c1.704-8.156-3.671-7.568-3.671-7.568
	c-4.654,0.028-8.103,3.277-10.5,7.278C37.475,54.123,33.1,56.4,28.38,58.966c-0.499-0.572-3.032-3.345-8.686-7.355
	c-6.292-5.187-9.832-8.417-9.832-13.996c0.295-11.257,24.384-28.776,46.211-29.56c0,0,12.88,0,12.88,8.026
	s-13.47,21.534-28.907,21.534c0,0-6.385,0.284-10.416-3.728c-0.657-0.657-0.79-0.523-0.79-0.523s-0.586-0.174-0.586,0.805
	c0,0,1.041,7.259,13.578,7.259c18.83,0,33.47-12.232,33.47-25.983c0,0,1.29-14.443-20.8-14.443C34.051,1,1.015,20.158,1.015,36.797
	c0,0-1.117,7.993,16.188,19.477c4.365,3.099,4.057,2.856,6.915,5.041c-4.327,2.417-8.557,4.899-11.568,6.933
	c0,0-7.667,5.091-7.667,12.465c0,7.372,4.916,8.287,8.585,8.287c4.327,0,18.617-3.556,18.617-19.185c0,0,0.416-4.261-1.573-7.765
	c1-0.675,4.223-2.38,6.947-3.79c-1.308,3.612-1.886,6.987-1.836,8.555c-0.064,2.936,0.46,10.701,6.162,11.42
	c2.983,0.376,5.769-4.288,7.992-9.987c-0.673,9.027,3.119,8.356,3.119,8.356c5.374,0.064,15.11-25.547,15.11-25.547
	c-0.062,3.179,3.206,9.354,3.625,10.13c-0.716,1.023-1.419,1.977-2.089,2.819c-3.604,4.535-6.587,7.341-6.587,9.169
	c0,1.826,3.016,1.858,3.016,1.858s12.225-0.946,12.225-9.625c-0.229-4.702-1.343-5.808-1.343-5.808s5.105-7.468,7.109-11.882
	c0.488,3.306,2.526,7.877,3.167,9.255c-4.253,3.526-6.737,8.035-6.817,11.079c0,2.577,1.915,3.134,2.832,3.134
	c0.918,0,1.515-0.104,4.419-1.384c4.136-1.822,6.595-5.305,6.595-8.113c0-2.81-1.047-4.695-1.047-4.695s2.296-1.451,8.521-1.599
	c14.618,0,14.925,9.722,14.925,9.722c-0.074,3.536-3.491,5.433-3.896,5.7c-0.405,0.269-0.32,0.613-0.21,0.82
	c0.11,0.208,0.43,0.135,0.43,0.135c4.695-1.223,6.121-5.089,6.121-7.487C118.065,50.584,101.694,51.611,101.694,51.611z
	 M24.61,76.666c-2.096,3.59-12.584,10.832-12.978,3.329c-0.394-7.503,14.88-15.597,14.88-15.597
	C28.283,68.968,26.709,73.079,24.61,76.666z M42.47,71.373c-1.506-0.694-1.134-6.865-0.737-8.833
	c0.488-2.813,5.047-13.312,8.833-11.958c0.556,0.293,0.622,1.403-0.705,4.695C48.233,60.646,44.337,72.233,42.47,71.373z
	 M71.279,69.193c-2,2.511-4.752,3.394-4.227,2.773c0.523-0.621,5.341-6.265,5.734-6.885C72.787,65.082,73.278,66.682,71.279,69.193z
	 M87.767,65.412c-1.885,2.854-3.835,2.903-3.868,2.659c-0.213-0.555-0.18-3.932,4.491-8.189
	C88.39,59.882,89.651,62.557,87.767,65.412z"/>
</svg>
