<?xml version="1.0" encoding="utf-8"?>
<!-- Generator: Adobe Illustrator 16.0.0, SVG Export Plug-In . SVG Version: 6.00 Build 0)  -->
<!DOCTYPE svg PUBLIC "-//W3C//DTD SVG 1.1//EN" "http://www.w3.org/Graphics/SVG/1.1/DTD/svg11.dtd">
<svg version="1.1" xmlns="http://www.w3.org/2000/svg" xmlns:xlink="http://www.w3.org/1999/xlink" x="0px" y="0px" width="512px"
	 height="512px" viewBox="0 0 512 512" enable-background="new 0 0 512 512" xml:space="preserve">
<g id="Layer_1">
	<g>
		<rect fill="#3C599F" width="24" height="24"/>
	</g>
	<g>
		<rect x="48" fill="#D74536" width="24" height="24"/>
		<g>
			<path fill="#FFFFFF" d="M60.765,13.135l-0.75-0.583c-0.229-0.19-0.542-0.439-0.542-0.898s0.313-0.751,0.585-1.022
				c0.874-0.688,1.747-1.42,1.747-2.963c0-1.586-0.999-2.421-1.477-2.817h1.29L62.972,4h-4.104c-1.125,0-2.748,0.265-3.935,1.246
				c-0.896,0.771-1.333,1.838-1.333,2.796c0,1.627,1.25,3.276,3.457,3.276c0.208,0,0.437-0.02,0.666-0.042
				c-0.103,0.251-0.208,0.46-0.208,0.814c0,0.646,0.333,1.042,0.625,1.417c-0.938,0.065-2.688,0.168-3.978,0.961
				c-1.228,0.732-1.602,1.794-1.602,2.546c0,1.545,1.456,2.984,4.477,2.984c3.58,0,5.477-1.981,5.477-3.943
				C62.514,14.616,61.681,13.906,60.765,13.135z M58.036,10.734c-1.792,0-2.602-2.315-2.602-3.714c0-0.544,0.102-1.105,0.456-1.544
				c0.334-0.418,0.917-0.689,1.459-0.689c1.728,0,2.623,2.337,2.623,3.84c0,0.375-0.042,1.042-0.521,1.524
				C59.117,10.485,58.557,10.734,58.036,10.734z M58.058,19.125c-2.227,0-3.665-1.065-3.665-2.547c0-1.481,1.332-1.983,1.791-2.149
				c0.874-0.294,1.999-0.335,2.187-0.335c0.208,0,0.312,0,0.479,0.022c1.583,1.126,2.271,1.688,2.271,2.755
				C61.12,18.163,60.058,19.125,58.058,19.125z"/>
			<rect x="65" y="9" fill="#FFFFFF" width="1" height="5"/>
			<rect x="63" y="11" fill="#FFFFFF" width="5" height="1"/>
		</g>
	</g>
	<g>
		<rect x="24" fill="#55ACEE" width="24" height="24"/>
	</g>
</g>
<g id="Layer_2">
	<path fill="#FFFFFF" d="M16,4v3h-2c0,0-1,0-1,1s0,1,0,1h3l-1,3h-2v8h-3v-8H8V9h2V7c0,0,0-3,4-3S16,4,16,4z"/>
	<path fill="#FFFFFF" d="M43,6l-1.486,0.372C40.979,5.548,40.055,5,39,5c-1.657,0-3,1.343-3,3c0,0.313-0.013,0.622-0.037,0.926
		C32.494,8.484,30,6,30,6c-0.94,2.35,0.329,3.815,1.938,4.71C30.249,10.415,29,10,29,10c0,1.836,1.266,2.613,2.634,2.922
		C30.726,12.999,30,13,30,13c0.886,1.772,1.968,2.364,2.898,2.477C31.785,16.438,30.444,17,29,17c0,0,2,1,5,1c4.422,0,8-3.578,8-8
		V8.481C42.61,8.116,43,7.591,43,7l-0.622,0.207C42.763,6.871,43,6.456,43,6z"/>
</g>
</svg>
