<?xml version="1.0" encoding="utf-8"?>
<!-- Generator: Adobe Illustrator 16.0.0, SVG Export Plug-In . SVG Version: 6.00 Build 0)  -->
<!DOCTYPE svg PUBLIC "-//W3C//DTD SVG 1.1//EN" "http://www.w3.org/Graphics/SVG/1.1/DTD/svg11.dtd">
<svg version="1.1" id="Layer_1" xmlns="http://www.w3.org/2000/svg" xmlns:xlink="http://www.w3.org/1999/xlink" x="0px" y="0px"
	 width="48px" height="48px" viewBox="0 0 48 48" enable-background="new 0 0 48 48" xml:space="preserve">
<circle opacity="0.1" fill="#7D9F3E" cx="24" cy="24" r="24"/>
<g>
	<g opacity="0.5">
		<linearGradient id="SVGID_1_" gradientUnits="userSpaceOnUse" x1="19.0151" y1="36.8184" x2="12.6063" y2="35.0175">
			<stop  offset="0" style="stop-color:#000000;stop-opacity:0.3"/>
			<stop  offset="1" style="stop-color:#000000;stop-opacity:0"/>
		</linearGradient>
		<path fill="url(#SVGID_1_)" d="M9,34.357C16,34.571,20,38,20,38v-1.715C20,36.285,16,34.571,9,34.357z"/>
		<linearGradient id="SVGID_2_" gradientUnits="userSpaceOnUse" x1="20.3691" y1="36.9053" x2="32.0183" y2="33.6947">
			<stop  offset="0" style="stop-color:#000000;stop-opacity:0.3"/>
			<stop  offset="1" style="stop-color:#000000;stop-opacity:0"/>
		</linearGradient>
		<path fill="url(#SVGID_2_)" d="M20,36.285V38c0,0,11-5.785,19-6C31,32.215,20,36.285,20,36.285z"/>
	</g>
	<path fill="#7D9F3E" d="M20,30c0,0-4-8-11-9c7,1,11,17,11,17s11-27,19-28C31,11,20,30,20,30z"/>
</g>
</svg>
