<?xml version="1.0" encoding="utf-8"?>
<!-- Generator: Adobe Illustrator 16.0.0, SVG Export Plug-In . SVG Version: 6.00 Build 0)  -->
<!DOCTYPE svg PUBLIC "-//W3C//DTD SVG 1.1//EN" "http://www.w3.org/Graphics/SVG/1.1/DTD/svg11.dtd">
<svg version="1.1" id="Layer_1" xmlns="http://www.w3.org/2000/svg" xmlns:xlink="http://www.w3.org/1999/xlink" x="0px" y="0px"
	 width="256px" height="256px" viewBox="0 0 256 256" enable-background="new 0 0 256 256" xml:space="preserve">
<g>
	<path fill="#E3F3F6" d="M140.296,189.922c-12.213,0-27.249-7.448-39.24-19.438c-18.714-18.717-25.058-42.824-14.142-53.741
		c3.465-3.464,8.479-5.296,14.5-5.296c12.214,0,27.25,7.448,39.24,19.438c9.191,9.191,15.677,19.946,18.261,30.284
		c2.494,9.976,1.031,18.306-4.118,23.456C151.332,188.091,146.317,189.922,140.296,189.922z"/>
	<path fill="#8CC8C5" d="M101.417,109.447l0,4h0.001c11.701,0,26.193,7.224,37.823,18.853c8.938,8.939,15.236,19.364,17.734,29.355
		c2.317,9.268,1.041,16.923-3.592,21.557c-3.082,3.081-7.607,4.71-13.087,4.71c-11.702,0-26.196-7.224-37.826-18.852
		c-17.631-17.633-24.107-40.948-14.142-50.913c3.081-3.081,7.606-4.71,13.086-4.71L101.417,109.447 M101.415,109.447
		c-6.369,0-11.93,1.897-15.915,5.882c-11.716,11.716-5.384,37.042,14.142,56.569c12.886,12.885,28.295,20.023,40.654,20.023
		c6.369,0,11.931-1.897,15.915-5.882c11.716-11.716,5.384-37.042-14.143-56.568C129.183,116.586,113.774,109.446,101.415,109.447
		L101.415,109.447z"/>
</g>
<g>
	<path fill="#E3F3F6" d="M30.704,189.922c-6.021,0-11.036-1.831-14.501-5.296c-5.15-5.15-6.613-13.48-4.119-23.456
		c2.584-10.338,9.07-21.093,18.262-30.285c11.99-11.989,27.025-19.438,39.239-19.438c6.022,0,11.036,1.831,14.501,5.296
		c5.15,5.15,6.613,13.48,4.119,23.456c-2.584,10.338-9.07,21.093-18.261,30.284C57.953,182.474,42.917,189.922,30.704,189.922z"/>
	<g>
		<path fill="#8CC8C5" d="M69.585,113.447L69.585,113.447c5.479,0,10.005,1.629,13.087,4.71c4.634,4.633,5.91,12.289,3.592,21.556
			c-2.498,9.991-8.796,20.416-17.735,29.355c-11.629,11.629-26.122,18.853-37.825,18.853c-5.479,0-10.005-1.629-13.087-4.71
			c-4.634-4.634-5.91-12.29-3.593-21.557c2.498-9.991,8.796-20.417,17.736-29.356C43.388,120.671,57.882,113.447,69.585,113.447
			 M69.584,109.447c-12.359,0-27.769,7.14-40.653,20.023C9.404,148.998,3.072,174.324,14.789,186.04
			c3.985,3.985,9.544,5.882,15.915,5.882c12.358,0,27.769-7.14,40.653-20.024c19.526-19.526,25.859-44.853,14.143-56.568
			C81.515,111.344,75.955,109.447,69.584,109.447L69.584,109.447z"/>
	</g>
</g>
<g>
	<path fill="#4C4C46" d="M142,166.939c0,31.203-25.296,56.5-56.5,56.5l0,0c-31.205,0-56.5-25.297-56.5-56.5V96.832
		c0-31.203,25.295-56.5,56.5-56.5l0,0c31.204,0,56.5,25.297,56.5,56.5V166.939z"/>
</g>
<path fill="#E7D04B" d="M30,166.939c0,11.737,3.628,22.957,10.492,32.458c10.465,7.131,27.272,11.385,45.008,11.385
	s34.543-4.254,45.008-11.385c6.864-9.501,10.492-20.721,10.492-32.458v-10.107H30V166.939z"/>
<g>
	<path fill="#4C4C46" d="M29,166.939c0,3.188,0.277,6.309,0.784,9.352c4.458,9.481,27.698,16.71,55.716,16.71
		c28.017,0,51.258-7.229,55.716-16.71c0.507-3.043,0.784-6.164,0.784-9.352V151.25H29V166.939z"/>
</g>
<path fill="#E7D04B" d="M141,138.349c-4.946,3.83-27.906,6.729-55.5,6.729s-50.553-2.898-55.5-6.729v22
	c4.947,3.83,27.906,6.729,55.5,6.729s50.554-2.898,55.5-6.729V138.349z"/>
<circle fill="#9E8630" cx="134.18" cy="141.074" r="9.343"/>
<circle fill="#9E8630" cx="57.43" cy="141.074" r="9.343"/>
<circle fill="#9E8630" cx="68.183" cy="195.092" r="9.343"/>
<circle fill="#9E8630" cx="122.958" cy="195.092" r="9.343"/>
<g>
	<path fill="#E7D04B" d="M141,96.832c0-30.603-24.897-55.5-55.5-55.5S30,66.229,30,96.832v21.714
		c4.947,3.831,27.906,6.729,55.5,6.729s50.554-2.898,55.5-6.729V96.832z"/>
</g>
<path fill="none" stroke="#282823" stroke-width="4" d="M78.006,72.481c0,5.522-4.665,10-10.417,10c-5.754,0-10.417-4.478-10.417-10
	"/>
<path fill="none" stroke="#282823" stroke-width="4" d="M126.535,72.481c0,5.522-4.665,10-10.417,10
	c-5.754,0-10.417-4.478-10.417-10"/>
<g>
	<circle fill="#D2B733" cx="118.073" cy="100.788" r="8.462"/>
</g>
<g>
	<circle fill="#D2B733" cx="65.634" cy="100.335" r="8.462"/>
</g>
<path fill="none" stroke="#282823" stroke-width="4" d="M78.891,100.524c7.16,7.159,18.766,7.159,25.926,0"/>
<g>
	<path fill="#4C4C46" d="M85.5,44.332c28.949,0,52.5,23.551,52.5,52.5v70.107c0,28.948-23.551,52.5-52.5,52.5S33,195.888,33,166.939
		V96.832C33,67.883,56.551,44.332,85.5,44.332 M85.5,40.332c-31.205,0-56.5,25.297-56.5,56.5v70.107c0,31.203,25.295,56.5,56.5,56.5
		c31.204,0,56.5-25.297,56.5-56.5V96.832C142,65.629,116.704,40.332,85.5,40.332L85.5,40.332z"/>
</g>
<path fill="none" stroke="#282823" stroke-width="10" stroke-linecap="round" d="M78.006,50.535
	c-3.498-14.343-17.96-23.136-32.306-19.64"/>
<path fill="none" stroke="#282823" stroke-width="10" stroke-linecap="round" d="M105.701,50.535
	c3.498-14.343,17.96-23.136,32.306-19.64"/>
<g>
	<circle fill="#5A5851" cx="45.7" cy="30.129" r="10.833"/>
</g>
<g>
	<circle fill="#5A5851" cx="138.007" cy="30.129" r="10.833"/>
</g>
<g>
	<g>
		<g>
			<path fill="#973620" d="M191.205,90.492l8.955,49.454c0.002,0.008,0.006,0.018,0.007,0.025c0.875,4.113-1.752,8.158-5.866,9.033
				c-4.113,0.874-8.156-1.753-9.031-5.867h-0.003l-11.939-48.845L191.205,90.492z"/>
			<g>
				<path fill="#973620" d="M217.803,130.22h0.003c0.875,4.114,4.918,6.741,9.031,5.867c0.659-0.14,1.274-0.369,1.849-0.659
					c-3.363-0.17-6.328-2.565-7.062-6.017h-0.003"/>
			</g>
			<polygon fill="#C0C0C0" points="183.613,73.09 191.205,90.492 173.327,94.292 173.185,75.307 			"/>
			<polygon fill="#9B9B9B" points="173.185,75.307 173.327,94.292 177.146,93.48 177.004,74.495 			"/>
			<g>
				<g>
					<path fill="#6E5842" d="M180.512,61.604c-3.619-2.35-8.234-1.923-11.357,0.74l1.941,1.261c1.258,0.814,1.614,2.495,0.798,3.752
						c-2.047,3.152-1.151,7.367,2.001,9.416c3.153,2.046,7.368,1.15,9.416-2.001C186.174,70.362,184.921,64.468,180.512,61.604z"/>
				</g>
			</g>
			<polyline fill="#75271A" points="189.085,142.332 177.146,93.487 173.327,94.295 185.267,143.141 			"/>
		</g>
		<g>
			<g>
				<path fill="#391F13" d="M175.342,60.069c1.774,0,3.569,0.496,5.17,1.535c4.069,2.643,5.441,7.866,3.379,12.122l7.314,16.766
					l8.955,49.454c0.002,0.008,0.006,0.018,0.007,0.025c0.875,4.113-1.752,8.158-5.866,9.033c-0.533,0.113-1.065,0.168-1.59,0.168
					c-3.519,0-6.68-2.454-7.441-6.035l-11.942-48.845l-0.136-18.05c-2.567-2.184-3.183-5.981-1.298-8.883
					c0.816-1.257,0.46-2.938-0.798-3.752l-1.941-1.261C170.896,60.859,173.103,60.069,175.342,60.069 M175.342,57.069
					c-2.982,0-5.871,1.062-8.134,2.993l-3.059,2.608l3.37,2.19l1.705,1.107c-2.23,3.666-1.782,8.346,0.977,11.522l0.126,16.824
					l0.003,0.35l0.083,0.34l11.933,48.806c1.055,4.849,5.406,8.362,10.365,8.362c0.74,0,1.484-0.079,2.214-0.233
					c2.773-0.59,5.151-2.225,6.696-4.603c1.52-2.341,2.053-5.125,1.508-7.855l-0.019-0.149l-0.03-0.098l-8.923-49.276l-0.062-0.344
					l-0.14-0.321l-6.807-15.602c1.867-5.366-0.137-11.44-5.003-14.602C180.111,57.768,177.759,57.069,175.342,57.069L175.342,57.069
					z"/>
			</g>
		</g>
	</g>
	<g>
		<path fill="#85BEBB" stroke="#559893" stroke-width="3" d="M223.432,146.518c-0.574,2.701-3.229,4.425-5.93,3.851l-12.716-2.703
			c-2.701-0.574-4.425-3.229-3.851-5.93l16.633-78.252c0.574-2.701,3.229-4.426,5.93-3.852l12.716,2.703
			c2.702,0.574,4.425,3.229,3.851,5.931L223.432,146.518z"/>
		
			<rect x="216.484" y="72.315" transform="matrix(0.9781 0.2079 -0.2079 0.9781 20.1651 -44.228)" fill="#559893" width="7.999" height="3"/>
		
			<rect x="214.404" y="82.097" transform="matrix(0.9782 0.2079 -0.2079 0.9782 22.1469 -43.5721)" fill="#559893" width="8.001" height="3"/>
		
			<rect x="212.325" y="91.878" transform="matrix(0.9782 0.2079 -0.2079 0.9782 24.1381 -42.9311)" fill="#559893" width="8" height="3"/>
		
			<rect x="210.246" y="101.659" transform="matrix(0.9782 0.2079 -0.2079 0.9782 26.1261 -42.2852)" fill="#559893" width="8" height="3"/>
		
			<rect x="208.167" y="111.441" transform="matrix(0.9782 0.2079 -0.2079 0.9782 28.1141 -41.6392)" fill="#559893" width="8" height="2.999"/>
		
			<rect x="206.088" y="121.223" transform="matrix(0.9782 0.2079 -0.2079 0.9782 30.1022 -40.9933)" fill="#559893" width="8" height="3"/>
		
			<rect x="204.009" y="131.004" transform="matrix(0.9782 0.2079 -0.2079 0.9782 32.0902 -40.3474)" fill="#559893" width="8" height="3"/>
	</g>
	<g>
		<rect x="200" y="60" fill="#D0CDB4" width="4" height="7"/>
		<rect x="200" y="57" fill="#2398CD" width="4" height="3"/>
		<polygon fill="#A29E8E" stroke="#444134" stroke-width="3" stroke-miterlimit="10" points="208.143,82.5 195.143,82.5 
			198.643,66.5 204.643,66.5 		"/>
		<path fill="#D0CDB4" d="M213.143,138c0,2.762-2.238,5-5,5h-13c-2.762,0-5-2.238-5-5V88c0-2.761,2.238-5,5-5h13
			c2.762,0,5,2.239,5,5V138z"/>
		<path fill="#A29E8E" d="M196.643,138V88c0-2.761,2.238-5,5-5h-6.5c-2.762,0-5,2.239-5,5v50c0,2.762,2.238,5,5,5h6.5
			C198.881,143,196.643,140.762,196.643,138z"/>
		<path fill="none" stroke="#444134" stroke-width="3" stroke-miterlimit="10" d="M213.143,138c0,2.762-2.238,5-5,5h-13
			c-2.762,0-5-2.238-5-5V88c0-2.761,2.238-5,5-5h13c2.762,0,5,2.239,5,5V138z"/>
	</g>
	<ellipse fill="#0C0C0B" cx="201.642" cy="116.745" rx="46.252" ry="14.745"/>
	<path fill="#282823" d="M241.685,109.229c-4.953-2.727-12.562-4.902-21.705-6.162l-18.337,13.538L241.685,109.229z"/>
	
		<ellipse fill="none" stroke="#282823" stroke-width="4" stroke-miterlimit="10" cx="201.642" cy="116.605" rx="46.252" ry="14.745"/>
	<g>
		<path fill="#282823" d="M229.778,116.605c0-1.935-12.598-3.503-28.136-3.503c-15.539,0-28.137,1.568-28.137,3.503v45
			c0,1.935,12.598,3.503,28.137,3.503c15.538,0,28.136-1.568,28.136-3.503V116.605z"/>
	</g>
	<rect x="173.506" y="115.239" fill="#0C0C0B" width="11.239" height="45.428"/>
	<g>
		<ellipse fill="#0C0C0B" cx="201.642" cy="161.605" rx="28.136" ry="3.503"/>
	</g>
	<g>
		<g>
			<path fill="#E4683C" d="M201.643,123.103c15.538,0,28.136,1.568,28.136,3.503v-10c0-1.935-12.598-3.503-28.136-3.503
				c-15.539,0-28.137,1.568-28.137,3.503v10C173.506,124.671,186.104,123.103,201.643,123.103z"/>
		</g>
	</g>
	<path fill="none" stroke="#282823" stroke-width="4" stroke-miterlimit="10" d="M229.778,116.605
		c0-1.935-12.598-3.503-28.136-3.503c-15.539,0-28.137,1.568-28.137,3.503v45c0,1.935,12.598,3.503,28.137,3.503
		c15.538,0,28.136-1.568,28.136-3.503V116.605z"/>
</g>
<path fill="none" stroke="#282823" stroke-width="10" stroke-linecap="round" d="M131.914,231.822
	c7.669-12.615,3.66-29.059-8.956-36.73"/>
<path fill="none" stroke="#282823" stroke-width="10" stroke-linecap="round" d="M134.18,141.074
	c14.569,2.391,28.317-7.48,30.71-22.051"/>
<path fill="none" stroke="#282823" stroke-width="10" stroke-linecap="round" d="M48.474,177.805
	c-7.669-12.615-3.66-29.059,8.956-36.73"/>
<path fill="none" stroke="#282823" stroke-width="10" stroke-linecap="round" d="M59.227,231.822
	c-7.669-12.615-3.66-29.059,8.956-36.73"/>
</svg>
