<?xml version="1.0" encoding="utf-8"?>
<!-- Generator: Adobe Illustrator 16.0.0, SVG Export Plug-In . SVG Version: 6.00 Build 0)  -->
<!DOCTYPE svg PUBLIC "-//W3C//DTD SVG 1.1//EN" "http://www.w3.org/Graphics/SVG/1.1/DTD/svg11.dtd">
<svg version="1.1" id="Layer_1" xmlns="http://www.w3.org/2000/svg" xmlns:xlink="http://www.w3.org/1999/xlink" x="0px" y="0px"
	 width="176px" height="74px" viewBox="0 0 176 74" enable-background="new 0 0 176 74" xml:space="preserve">
<g>
	
		<linearGradient id="SVGID_1_" gradientUnits="userSpaceOnUse" x1="294.5" y1="-97.874" x2="294.5" y2="-165.2819" gradientTransform="matrix(1 0 0 -1 -206 -94)">
		<stop  offset="0" style="stop-color:#2B4F84"/>
		<stop  offset="1" style="stop-color:#0B1F42"/>
	</linearGradient>
	<polygon fill="url(#SVGID_1_)" points="24,2 38,2 38,1 151,1 151,2 154,2 169,37 154,72 151,72 151,73 25,73 25,72 22,72 8,37 	"/>
	<path fill="#E5E5E1" d="M38,43V1H28h-6C10,1,9,13,9,13s0,2,0,10S1,35,1,35v4c0,0,8,4,8,12s0,10,0,10s1,12,13,12c2,0,3,0,3,0v-7
		c0,0-6,1-6-9c0-8,0-7,0-7s0-13-9-13c9,0,9-13,9-13s0,1,0-7c0-10,6-9,6-9h3c0,0,0,27,0,37s8,13,13,13s6-1,6-1l-2-7
		C45,50,38,53,38,43z"/>
	<path fill="#E5E5E1" d="M166,37c-9,0-9,13-9,13s0-1,0,7c0,10-6,9-6,9v7c0,0,1,0,3.24,0c12,0,12.76-12,12.76-12s0-2,0-10s8-12,8-12
		v-4c0,0-8-4-8-12s0-10,0-10s-0.76-12-12.76-12C152,1,151,1,151,1v7c0,0,6-1,6,9c0,8,0,7,0,7S157,37,166,37z"/>
	<path fill="#E5E5E1" d="M57.682,42c0.416,5,5.58,7.523,11.494,7.523c4.33,0,7.829-0.694,11.244-1.775l1.665,8.523
		c-4.164,1.664-9.247,2.472-14.743,2.472c-13.824,0-21.734-8.009-21.734-20.752c0-10.329,6.412-21.746,20.572-21.746
		c13.155,0,18.153,10.461,18.153,20.539c0,2.167-0.251,4.215-0.417,5.215L57.682,42L57.682,42z M72.59,33
		c0-3-1.333-8.243-7.165-8.243C60.094,24.757,57.932,29,57.6,33H72.59z"/>
	<path fill="#E5E5E1" d="M87.434,46.805c2.332,1.416,7.16,3.081,10.907,3.081c3.832,0,5.415-1.333,5.415-3.415
		s-1.248-3.082-5.994-4.666c-8.414-2.832-11.662-7.412-11.58-12.24c0-7.578,6.496-13.326,16.573-13.326
		c4.748,0,8.996,1.082,11.495,2.33l-2.248,8.748c-1.834-1-5.331-2.334-8.83-2.334c-3.083,0-4.832,1.248-4.832,3.33
		c0,1.916,1.583,2.916,6.582,4.666c7.745,2.666,10.993,6.58,11.078,12.578c0,7.578-5.998,13.159-17.659,13.159
		c-5.331,0-10.077-1.166-13.155-2.834L87.434,46.805z"/>
	<path fill="#E5E5E1" d="M119.248,46.805c2.333,1.416,7.162,3.081,10.909,3.081c3.831,0,5.415-1.333,5.415-3.415
		s-1.248-3.082-5.995-4.666c-8.413-2.832-11.661-7.412-11.58-12.24c0-7.578,6.497-13.326,16.573-13.326
		c4.748,0,8.996,1.082,11.496,2.33l-2.248,8.748c-1.834-1-5.332-2.334-8.83-2.334c-3.082,0-4.832,1.248-4.832,3.33
		c0,1.916,1.582,2.916,6.582,4.666c7.744,2.666,10.992,6.58,11.078,12.578c0,7.578-6,13.159-17.659,13.159
		c-5.331,0-10.078-1.166-13.157-2.834L119.248,46.805z"/>
</g>
</svg>
